<mxfile host="app.diagrams.net" modified="2022-04-13T21:39:20.943Z" agent="5.0 (X11; CrOS x86_64 14526.69.0) AppleWebKit/537.36 (KHTML, like Gecko) Chrome/100.0.4896.82 Safari/537.36" etag="MXXZsrmP_u1mgbuf1RCR" version="17.4.3" type="github">
  <diagram id="6a731a19-8d31-9384-78a2-239565b7b9f0" name="Page-1">
    <mxGraphModel dx="1168" dy="784" grid="1" gridSize="10" guides="1" tooltips="1" connect="1" arrows="1" fold="1" page="1" pageScale="1" pageWidth="1169" pageHeight="827" background="none" math="0" shadow="0">
      <root>
        <mxCell id="0" />
        <mxCell id="1" parent="0" />
        <mxCell id="xyDB7umJ-qCF1QacfZHw-55" value="Start" style="strokeWidth=2;html=1;shape=mxgraph.flowchart.terminator;whiteSpace=wrap;" vertex="1" parent="1">
          <mxGeometry x="260" y="60" width="100" height="60" as="geometry" />
        </mxCell>
        <mxCell id="xyDB7umJ-qCF1QacfZHw-57" value="Is note selected?" style="strokeWidth=2;html=1;shape=mxgraph.flowchart.decision;whiteSpace=wrap;" vertex="1" parent="1">
          <mxGeometry x="260" y="180" width="100" height="100" as="geometry" />
        </mxCell>
        <mxCell id="xyDB7umJ-qCF1QacfZHw-58" value="Downloaded?" style="strokeWidth=2;html=1;shape=mxgraph.flowchart.decision;whiteSpace=wrap;" vertex="1" parent="1">
          <mxGeometry x="420" y="180" width="100" height="100" as="geometry" />
        </mxCell>
        <mxCell id="xyDB7umJ-qCF1QacfZHw-59" value="Download" style="rounded=0;whiteSpace=wrap;html=1;" vertex="1" parent="1">
          <mxGeometry x="590" y="200" width="120" height="60" as="geometry" />
        </mxCell>
        <mxCell id="xyDB7umJ-qCF1QacfZHw-60" value="" style="endArrow=classic;html=1;rounded=0;" edge="1" parent="1" source="xyDB7umJ-qCF1QacfZHw-55" target="xyDB7umJ-qCF1QacfZHw-57">
          <mxGeometry width="50" height="50" relative="1" as="geometry">
            <mxPoint x="200" y="190" as="sourcePoint" />
            <mxPoint x="250" y="140" as="targetPoint" />
          </mxGeometry>
        </mxCell>
        <mxCell id="xyDB7umJ-qCF1QacfZHw-61" value="Yes" style="endArrow=classic;html=1;rounded=0;" edge="1" parent="1" source="xyDB7umJ-qCF1QacfZHw-57" target="xyDB7umJ-qCF1QacfZHw-58">
          <mxGeometry width="50" height="50" relative="1" as="geometry">
            <mxPoint x="360" y="190" as="sourcePoint" />
            <mxPoint x="410" y="140" as="targetPoint" />
          </mxGeometry>
        </mxCell>
        <mxCell id="xyDB7umJ-qCF1QacfZHw-62" value="No" style="endArrow=classic;html=1;rounded=0;" edge="1" parent="1" source="xyDB7umJ-qCF1QacfZHw-58" target="xyDB7umJ-qCF1QacfZHw-59">
          <mxGeometry width="50" height="50" relative="1" as="geometry">
            <mxPoint x="510" y="210" as="sourcePoint" />
            <mxPoint x="560" y="160" as="targetPoint" />
          </mxGeometry>
        </mxCell>
        <mxCell id="xyDB7umJ-qCF1QacfZHw-63" value="" style="endArrow=classic;html=1;rounded=0;edgeStyle=orthogonalEdgeStyle;" edge="1" parent="1" source="xyDB7umJ-qCF1QacfZHw-59" target="xyDB7umJ-qCF1QacfZHw-55">
          <mxGeometry width="50" height="50" relative="1" as="geometry">
            <mxPoint x="520" y="120" as="sourcePoint" />
            <mxPoint x="570" y="70" as="targetPoint" />
            <Array as="points">
              <mxPoint x="650" y="90" />
            </Array>
          </mxGeometry>
        </mxCell>
        <mxCell id="xyDB7umJ-qCF1QacfZHw-64" value="Show downloaded Note details" style="strokeWidth=2;html=1;shape=mxgraph.flowchart.terminator;whiteSpace=wrap;fillColor=#d5e8d4;strokeColor=#82b366;" vertex="1" parent="1">
          <mxGeometry x="420" y="320" width="100" height="60" as="geometry" />
        </mxCell>
        <mxCell id="xyDB7umJ-qCF1QacfZHw-65" value="Yes" style="endArrow=classic;html=1;rounded=0;" edge="1" parent="1" source="xyDB7umJ-qCF1QacfZHw-58" target="xyDB7umJ-qCF1QacfZHw-64">
          <mxGeometry width="50" height="50" relative="1" as="geometry">
            <mxPoint x="280" y="400" as="sourcePoint" />
            <mxPoint x="330" y="350" as="targetPoint" />
          </mxGeometry>
        </mxCell>
        <mxCell id="xyDB7umJ-qCF1QacfZHw-66" value="Is passage selected?" style="strokeWidth=2;html=1;shape=mxgraph.flowchart.decision;whiteSpace=wrap;" vertex="1" parent="1">
          <mxGeometry x="260" y="430" width="100" height="100" as="geometry" />
        </mxCell>
        <mxCell id="xyDB7umJ-qCF1QacfZHw-67" value="" style="endArrow=classic;html=1;rounded=0;" edge="1" parent="1" source="xyDB7umJ-qCF1QacfZHw-57" target="xyDB7umJ-qCF1QacfZHw-66">
          <mxGeometry width="50" height="50" relative="1" as="geometry">
            <mxPoint x="180" y="370" as="sourcePoint" />
            <mxPoint x="230" y="320" as="targetPoint" />
          </mxGeometry>
        </mxCell>
        <mxCell id="xyDB7umJ-qCF1QacfZHw-68" value="Invalid scenario" style="strokeWidth=2;html=1;shape=mxgraph.flowchart.terminator;whiteSpace=wrap;fillColor=#f8cecc;strokeColor=#b85450;" vertex="1" parent="1">
          <mxGeometry x="90" y="450" width="100" height="60" as="geometry" />
        </mxCell>
        <mxCell id="xyDB7umJ-qCF1QacfZHw-69" value="No" style="endArrow=classic;html=1;rounded=0;fillColor=#f8cecc;strokeColor=#b85450;" edge="1" parent="1" source="xyDB7umJ-qCF1QacfZHw-66" target="xyDB7umJ-qCF1QacfZHw-68">
          <mxGeometry width="50" height="50" relative="1" as="geometry">
            <mxPoint x="130" y="400" as="sourcePoint" />
            <mxPoint x="180" y="350" as="targetPoint" />
          </mxGeometry>
        </mxCell>
        <mxCell id="xyDB7umJ-qCF1QacfZHw-70" value="Downloaded?" style="strokeWidth=2;html=1;shape=mxgraph.flowchart.decision;whiteSpace=wrap;" vertex="1" parent="1">
          <mxGeometry x="420" y="430" width="100" height="100" as="geometry" />
        </mxCell>
        <mxCell id="xyDB7umJ-qCF1QacfZHw-71" value="Download" style="rounded=0;whiteSpace=wrap;html=1;" vertex="1" parent="1">
          <mxGeometry x="590" y="450" width="120" height="60" as="geometry" />
        </mxCell>
        <mxCell id="xyDB7umJ-qCF1QacfZHw-72" value="Yes" style="endArrow=classic;html=1;rounded=0;" edge="1" parent="1" source="xyDB7umJ-qCF1QacfZHw-66" target="xyDB7umJ-qCF1QacfZHw-70">
          <mxGeometry width="50" height="50" relative="1" as="geometry">
            <mxPoint x="350" y="460" as="sourcePoint" />
            <mxPoint x="400" y="410" as="targetPoint" />
          </mxGeometry>
        </mxCell>
        <mxCell id="xyDB7umJ-qCF1QacfZHw-73" value="no" style="endArrow=classic;html=1;rounded=0;" edge="1" parent="1" source="xyDB7umJ-qCF1QacfZHw-70" target="xyDB7umJ-qCF1QacfZHw-71">
          <mxGeometry width="50" height="50" relative="1" as="geometry">
            <mxPoint x="520" y="450" as="sourcePoint" />
            <mxPoint x="570" y="400" as="targetPoint" />
          </mxGeometry>
        </mxCell>
        <mxCell id="xyDB7umJ-qCF1QacfZHw-74" value="" style="endArrow=classic;html=1;rounded=0;edgeStyle=orthogonalEdgeStyle;exitX=1.073;exitY=0.463;exitDx=0;exitDy=0;exitPerimeter=0;entryX=1;entryY=0.5;entryDx=0;entryDy=0;entryPerimeter=0;" edge="1" parent="1" source="xyDB7umJ-qCF1QacfZHw-71" target="xyDB7umJ-qCF1QacfZHw-55">
          <mxGeometry width="50" height="50" relative="1" as="geometry">
            <mxPoint x="620" y="400" as="sourcePoint" />
            <mxPoint x="670" y="350" as="targetPoint" />
            <Array as="points">
              <mxPoint x="760" y="478" />
              <mxPoint x="760" y="90" />
            </Array>
          </mxGeometry>
        </mxCell>
        <mxCell id="xyDB7umJ-qCF1QacfZHw-75" value="Show empty note, defaulted to passage start / end" style="strokeWidth=2;html=1;shape=mxgraph.flowchart.terminator;whiteSpace=wrap;fillColor=#d5e8d4;strokeColor=#82b366;" vertex="1" parent="1">
          <mxGeometry x="420" y="570" width="100" height="60" as="geometry" />
        </mxCell>
        <mxCell id="xyDB7umJ-qCF1QacfZHw-76" value="yes" style="endArrow=classic;html=1;rounded=0;" edge="1" parent="1" source="xyDB7umJ-qCF1QacfZHw-70" target="xyDB7umJ-qCF1QacfZHw-75">
          <mxGeometry width="50" height="50" relative="1" as="geometry">
            <mxPoint x="600" y="630" as="sourcePoint" />
            <mxPoint x="650" y="580" as="targetPoint" />
          </mxGeometry>
        </mxCell>
      </root>
    </mxGraphModel>
  </diagram>
</mxfile>
